<svg xmlns="http://www.w3.org/2000/svg" viewBox="0 0 136.06 272.13"><defs><style>.cls-1{fill:#346b99;opacity:0.3;}.cls-2{fill:#fff;}</style></defs><title>Ресурс 2</title><g id="Слой_2" data-name="Слой 2"><g id="Слой_1-2" data-name="Слой 1"><path class="cls-1" d="M0,0H124.72a11.34,11.34,0,0,1,11.34,11.34V260.79a11.34,11.34,0,0,1-11.34,11.34H0a0,0,0,0,1,0,0V0A0,0,0,0,1,0,0Z"/><path class="cls-2" d="M116.34,80h0V68.39a9.92,9.92,0,0,0-9.92-9.92H95.08a9.92,9.92,0,0,0-9.92,9.92V79.75a9.92,9.92,0,0,0,9.92,9.92h10.4v-6.8A2.83,2.83,0,0,1,108.31,80Z"/></g></g></svg>