<svg xmlns="http://www.w3.org/2000/svg" viewBox="0 0 146.06 272.13"><defs><style>.cls-1{fill:#346b99;opacity:0.7;}.cls-2{fill:#fff;}</style></defs><title>Ресурс 3</title><g id="Слой_2" data-name="Слой 2"><g id="Слой_1-2" data-name="Слой 1"><path class="cls-1" d="M0,0H10A136.06,136.06,0,0,1,146.06,136.06v0A136.06,136.06,0,0,1,10,272.13H0a0,0,0,0,1,0,0V0A0,0,0,0,1,0,0Z"/><path class="cls-2" d="M103.73,64.24c0,.08,0,.16,0,.24a5.47,5.47,0,1,1-8.58-5.29c-.22,0-.43-.1-.64-.13a15.23,15.23,0,1,0,9.25,5.18Z"/></g></g></svg>