<svg xmlns="http://www.w3.org/2000/svg" viewBox="0 0 216.07 272.13"><defs><style>.cls-1{fill:#346b99;}.cls-2{fill:#fff;}</style></defs><title>Ресурс 4</title><g id="Слой_2" data-name="Слой 2"><g id="Слой_1-2" data-name="Слой 1"><path class="cls-1" d="M10,272.13H0V0H10C85.15,0,216.07,60.92,216.07,136.06h0C216.07,211.21,85.15,272.13,10,272.13Z"/><path class="cls-2" d="M149.6,77.35A5.45,5.45,0,0,1,156,72a18.55,18.55,0,0,0-1.51-2c-9-2.49-22.25-5.64-33.89-6.34a9.71,9.71,0,0,0-3.65,4.9c-2.25,7.2,5.08,15.89,16.37,19.42,10.79,3.37,21.27.79,24.14-5.73a5.46,5.46,0,0,1-7.9-4.89Z"/></g></g></svg>